#N canvas 910 494 450 300 10;
#X declare -lib mrpeach;
#X obj 14 14 import mrpeach;
#X obj 87 270 udpsend;
#X msg 86 70 connect localhost 3333;
#X floatatom 147 110 5 0 0 0 - - -;
#X msg 149 138 send /test \$1;
#X obj 152 183 packOSC;
#X obj 325 121 udpreceive 3334;
#X obj 320 164 unpackOSC;
#X obj 316 231 print;
#X msg 32 163 disconnect;
#X connect 2 0 1 0;
#X connect 3 0 4 0;
#X connect 4 0 5 0;
#X connect 5 0 1 0;
#X connect 6 0 7 0;
#X connect 7 0 8 0;
#X connect 9 0 1 0;
